<?xml version="1.0" encoding="utf-8"?>
<!-- Generator: Adobe Illustrator 16.0.0, SVG Export Plug-In . SVG Version: 6.00 Build 0)  -->
<!DOCTYPE svg PUBLIC "-//W3C//DTD SVG 1.1//EN" "http://www.w3.org/Graphics/SVG/1.1/DTD/svg11.dtd">
<svg version="1.1" id="Livello_1" xmlns="http://www.w3.org/2000/svg" xmlns:xlink="http://www.w3.org/1999/xlink" x="0px" y="0px"
	 width="76.83px" height="76.83px" viewBox="0 0 76.83 76.83" enable-background="new 0 0 76.83 76.83" xml:space="preserve">
<g>
	<g>
		<path fill="#0B8484" d="M46.951,47.683H28.202c-0.618,0-1.12-0.182-1.12,0.436c0,0,4.886,7.564,5.503,7.564H42.94
			c0.618,0,5.131-7.564,5.131-7.564C48.071,47.501,47.569,47.683,46.951,47.683z"/>
		<path fill="#0B8484" d="M32.488,60.482c0,0.531,0.561,1.201,1.093,1.201h8.033c0.532,0,0.874-0.67,0.874-1.201v-2.799h-10V60.482z
			"/>
		<path fill="#0B8484" d="M28.02,45.683h19.19c0.321,0,0.876-0.142,1.005-0.394l-0.727-1.891v-0.011
			c-1-1.479-1.418-2.347-1.909-3.207c-3.925-7.156-3.649-25.506-3.649-25.506c-0.137-3.146-4.275-2.805-4.275-2.805
			s-4.107-0.426-4.243,2.722c0,0,0.397,18.594-3.526,25.75c-0.49,0.86-1.094,1.342-1.641,3.342h-0.01l-0.976,1.695
			C27.374,45.667,27.671,45.683,28.02,45.683z"/>
	</g>
</g>
</svg>
